<mxfile host="Electron" agent="Mozilla/5.0 (Windows NT 10.0; Win64; x64) AppleWebKit/537.36 (KHTML, like Gecko) draw.io/24.7.17 Chrome/128.0.6613.36 Electron/32.0.1 Safari/537.36" version="24.7.17">
  <diagram name="第 1 页" id="uZZCd19nKiCIoA_tBzLr">
    <mxGraphModel dx="1430" dy="826" grid="0" gridSize="10" guides="1" tooltips="1" connect="1" arrows="1" fold="1" page="1" pageScale="1" pageWidth="1169" pageHeight="827" math="0" shadow="0">
      <root>
        <mxCell id="0" />
        <mxCell id="1" parent="0" />
        <mxCell id="h0hd5ZxkmlX1thas-wsX-12" value="" style="rounded=1;whiteSpace=wrap;html=1;fillColor=none;dashed=1;" vertex="1" parent="1">
          <mxGeometry x="369" y="321" width="415" height="224" as="geometry" />
        </mxCell>
        <mxCell id="h0hd5ZxkmlX1thas-wsX-13" style="edgeStyle=orthogonalEdgeStyle;rounded=0;orthogonalLoop=1;jettySize=auto;html=1;" edge="1" parent="1" source="h0hd5ZxkmlX1thas-wsX-2" target="h0hd5ZxkmlX1thas-wsX-3">
          <mxGeometry relative="1" as="geometry" />
        </mxCell>
        <mxCell id="h0hd5ZxkmlX1thas-wsX-2" value="" style="shape=image;verticalLabelPosition=bottom;labelBackgroundColor=default;verticalAlign=top;aspect=fixed;imageAspect=0;image=data:image/svg+xml,PHN2ZyB4bWxucz0iaHR0cDovL3d3dy53My5vcmcvMjAwMC9zdmciIHZpZXdCb3g9IjAgMCAxMjggMTI4Ij48cGF0aCBkPSJNMTA4Ljg5MyA2MS42OGMwIDI1LjM2LTIwLjA5OSA0NS45MTgtNDQuODkyIDQ1LjkxOC0yNC43OTQgMC00NC44OTMtMjAuNTU4LTQ0Ljg5My00NS45MThzMjAuMS00NS45MiA0NC44OTMtNDUuOTIgNDQuODkyIDIwLjU2IDQ0Ljg5MiA0NS45MiIgZmlsbD0iI2QzMzgzMyIvPjxwYXRoIGQ9Ik0yMC45MzggNzMuMDUyUzE3LjY4OCAyNS4xNjcgNjEuODEgMjMuOGwtMy4wNzgtNS4xMy0yMy45NDMgOC4wMzctNi44NCA3Ljg2Ny01Ljk4NiAxMS40NTktMy40MiAxMy4zMzkgMS4wMjUgOC44OTMiIGZpbGw9IiNlZjNkM2EiLz48cGF0aCBkPSJNMzMuMjUzIDMwLjM1NWMtNy44NzYgOC4wNi0xMi43NSAxOS4xODYtMTIuNzUgMzEuNDk2IDAgMTIuMzA3IDQuODc0IDIzLjQzNiAxMi43NSAzMS40OTQgNy44OCA4LjA1NyAxOC43NCAxMy4wMyAzMC43NDcgMTMuMDMgMTIuMDA3IDAgMjIuODY3LTQuOTczIDMwLjc0Ny0xMy4wMyA3Ljg3Ni04LjA1OCAxMi43NTEtMTkuMTg3IDEyLjc1MS0zMS40OTQgMC0xMi4zMS00Ljg3NS0yMy40MzctMTIuNzUxLTMxLjQ5NkM4Ni44NjcgMjIuMyA3Ni4wMDcgMTcuMzI3IDY0IDE3LjMyNmMtMTIuMDA2LjAwMS0yMi44NjcgNC45NzMtMzAuNzQ3IDEzLjAzek0zMS4yNiA5NS4yOTRjLTguMzctOC41NjEtMTMuNTQ2LTIwLjM5Mi0xMy41NDYtMzMuNDQzIDAtMTMuMDUzIDUuMTc2LTI0Ljg4MyAxMy41NDYtMzMuNDQ0IDguMzctOC41NjMgMTkuOTU0LTEzLjg3IDMyLjc0LTEzLjg2OSAxMi43ODgtLjAwMiAyNC4zNzQgNS4zMDYgMzIuNzQxIDEzLjg2OSA4LjM3MiA4LjU2MSAxMy41NDggMjAuMzkyIDEzLjU0NyAzMy40NDQgMCAxMy4wNS01LjE3NSAyNC44ODItMTMuNTQ3IDMzLjQ0My04LjM2NyA4LjU2Mi0xOS45NTMgMTMuODctMzIuNzQgMTMuODctMTIuNzg3IDAtMjQuMzcyLTUuMzA4LTMyLjc0LTEzLjg3IiBmaWxsPSIjMjMxZjIwIi8+PHBhdGggZD0ibTgyLjg5OCA2MS45MzQtNi44NDEgMS4wMjYtOS4yMzUgMS4wMjYtNS45ODYuMTcxLTUuODE1LS4xNy00LjQ0Ni0xLjM2OS0zLjkzNC00LjI3NS0zLjA3OC04LjcyMi0uNjg0LTEuODgxLTQuMTA1LTEuMzY4LTIuMzk0LTMuOTM0LTEuNzEtNS42NDQgMS44ODEtNC45NiA0LjQ0Ni0xLjUzOCAzLjU5MiAxLjcxIDEuNzEgMy43NjIgMi4wNTMtLjM0Mi42ODMtLjg1NS0uNjgzLTMuOTMzLS4xNzItNC45NiAxLjAyNi02Ljg0LS4wNC0zLjkwOCAzLjExOS00Ljk4NSA1LjQ3Mi0zLjkzNCA5LjU3OC00LjEwNCAxMC42MDMgMS41MzkgOS4yMzUgNi42NyA0LjI3NiA2Ljg0IDIuNzM2IDQuOTYuNjg0IDEyLjMxMy0yLjA1MyAxMC42MDQtMy43NjIgOS40MDUtMy41OTEgNC45NiIgZmlsbD0iI2YwZDZiNyIvPjxwYXRoIGQ9Im04OC4wMjcgNTYuOTc1LTQuMTAzIDQuMTA1djE1LjkwNGwtMy41OCAxNC42Ni0xLjcyMS4wNDcgMS4zNjcgMTYuNDE4IDYuNDk4LS44NTVMODQuOTUgOTEuNTJsLTIuOTAyLjA3OSA3Ljg2My0uNDIyczMuOTMyLTkuOTE5IDMuOTMyLTEwLjQzMmMwLS41MTMgMy40MjItMTQuMzY1IDMuNDIyLTE0LjM2NWwtNy42OTgtOC4wMzctMS41MzktMS4zN3ptLTQxLjIxNSAyLjU2NC00LjI3NSAxLjcxMS0xMy42ODIgOS40MDYuODU2IDIuNzM3IDMuOTM0IDExLjYyOCAxLjcwOSAxOS4zMjcgMS4xOTcgMi4wNSAxNy4xMDEgNS44MTcgMS4wMjgtMS4yLTIuMDUzLTE0LjM2NXYtNC4xMDNsMjQuNDU1LTEuMDI3IDEuODgtMS4wMjYtMTQuODc2LTcuMDEyIDIuNzM2LTUuMy0zLjkzMyAxLjM2Ny0xLjU0LTEuODgxLTIuMDUyLTguODkzLTEuNzExLS41MTMtMy43NjItMS4xOTgtMy4yNS0yLjkwNi0zLjc2MS00LjYxOXoiIGZpbGw9IiMzMzUwNjEiLz48cGF0aCBkPSJtMzYuNTUxIDMxLjgzNSA0LjQ0Ni0xLjU0IDMuNTkyIDEuNzExIDEuNzEgMy43NjIgMi4wNTMtLjM0Mi41MTMtMi4wNTItMS4wMjYtMy45MzMgMS4wMjYtOS40MDctLjg1Ni01LjEzIDMuMDc5LTMuNTkyIDYuNjctNS4zMDEtMS44ODItMi41NjUtOS40MDYgNC42MTctMy45MzMgMy4wNzktMi4yMjQgNC43ODgtMy40MiA0LjYxNy0xLjAyNiA1LjQ3My42ODQgNS44MTUiIGZpbGw9IiM2ZDZiNmQiLz48cGF0aCBkPSJNNTkuNDQ1IDQuMDIxYy0xLjE3Mi0uMDEyLTIuNTQzLjEwOC0yLjU0My4xMDhMNDUuNzg3IDguNDA2bC00LjI3NyA0LjI3Ni0xLjg4MSAzLjQyIDMuOTM0LS4zNDJzMi41NjUtNi4zMjggMTIuODI2LTkuNDA2YzYuNDEzLTEuOTI0IDUuMDEtMi4zMTIgMy4wNTYtMi4zMzN6TTQ4LjAxIDE0LjkwNGwtOS40MDYgMi4yMjMtMi43MzcgOC44OTMuNjg0IDUuODE0IDEuODgtMS4xOTVzLTMuNTkxLTExLjk3NCAxMC4wOS0xMy42ODRsLS41MTEtMi4wNXoiIGZpbGw9IiNkY2Q5ZDgiLz48cGF0aCBkPSJNNjkuOTg2LjQ3NWExMS4zMTggMTEuMzE4IDAgMCAwLTMuODUuNzQ4Yy0xMC4yNiAzLjkzMy0xNy43ODUgMTEuMTE1LTE3LjYxNSAxNS43MzIuMjkyIDcuODY0LjE3MiA3Ljg3LjE3MiA3Ljg3UzUxLjYwMSA5Ljc3NCA2Ni4zMSA2Ljg2NmMxMi4xMDgtMi4zOTMgMTguNDY4LjUxMiAyMC44NjMgMy4yNDggMCAwLTguMjUtOS44Mi0xNy4xODYtOS42NHptMTguMzI4IDExLjM1Yy0uNTQ1LS4wMDMtNC45MTMuMTA4LTUuMDc0IDQuMjc3IDAgMCAwIC42ODMuMzQyIDEuMzY3IDAgMCAzLjkzNC00LjQ0NyA2LjMyOC0yLjA1M2wtMS41MzktMy41OXMtLjAyLS4wMDItLjA1Ny0uMDAyem0tMjUuMTg1IDIuMDFjLS44NC4wMi0xLjg3Ni4zNzEtMy4xNDkgMS4yNC0zLjc2MiAyLjU2NS0zLjQyIDYuMTU3LTIuNzM2IDYuODQxLjY4NC42ODQuNDk5IDIuMDYgMS4wMiAxLjExNS41Mi0uOTQ1LjM0OS00LjAyMiAyLjIzLTQuODc3IDEuODgxLS44NTUgNC45NjYtMS44MTIgNi4xNi0uMjIyIDAgMC0uNTIyLTQuMTY2LTMuNTI1LTQuMDk2em0yNi40MzcgMTAuNDc2cy0yLjgxOC41OTQtMy4wNzggMy4wNzhjLS4yNiAyLjQ4MyAzLjA3OS41MTIgMy41OTIuMzQxbC0uNTE0LTMuNDJ6bS0yMC42OTMuMTcxcy0zLjc2Mi41MTMtMy43NjIgMi45MDcgNC4yNzYgMi4yMjMgNS40NzMgMS4xOTdsLTEuNzExLTQuMTA0ek0zOC40MzIgMzAuNjQgMzQuNSAzNC43NDJsLjY4NCA1LjEzMSAyLjA1IDUuMyAyLjIyNS42ODZjLTMuMjUtMy45MzMtMS43MTEtNi42NzEtMS4wMjctMTAuNDMzLjY4My0zLjc2MyA3LjE4My4xNzIgNy4xODMuMTcybC0uMTcyLTIuNTY3LTIuNTY0LTIuMDUtNC40NDctLjM0MnptMzguNjA5IDcuODQ3Yy0xLjEyNi0uMDUtMS41NTYgMy42MzUtMS42NDggNC41ODYuMzEtLjkyIDMuMTcxLTIuNzcgMy4xNzEtMi43N3MwLTEuMzk2LTEuMzk2LTEuNzk0YS41NDkuNTQ5IDAgMCAwLS4xMjctLjAyMnptLTEuNjQ4IDQuNTg2YS4zOTQuMzk0IDAgMCAwLS4wMi4yMjFzLjAwNi0uMDguMDItLjIyem0tMjkuMjQ4IDEuMzAxLTIuMjQgMi4xNy41MTMgNy41MjUgNS40NzMgOC41NTFzNi4xNDMgMS4zODYgNS40NzIuODU2Yy03LjM1My01LjgxNS03Ljg2Ni0xNi41OS04LjAzNy0xNy43ODgtLjE3LTEuMTk2LTEuMTgxLTEuMzE0LTEuMTgxLTEuMzE0em0xOS4yNDQgMi41NDljLS42NzUuMDEtMS4xMjIuMjI4LTEuMjQ4LjM5Ni0uNDI3LjU3LjQ1NyAzLjY3Mi40NTcgMy42NzJsLjg1NS4xNzJjLS4xNy0zLjQyMSAxLjg4MS0zLjc2NCAxLjg4MS0zLjc2NC0uNzU4LS4zNjQtMS40Mi0uNDg0LTEuOTQ1LS40NzZ6IiBmaWxsPSIjZjdlNGNkIi8+PHBhdGggZD0ibTQ1LjYxNSA1OS4zNy0xNi43NiAxMS4yODYgMS44ODEgNS4zMDMgNC40NDggMTkuMTUyLjE3IDEwLjA5MiAyLjM5NC44NTRjMy40Mi04LjIxLTMuMjQ4LTM0LjcxNy0zLjI0OC0zNC43MTdsMTYuMDc0LTcuMTgyLTQuOTU5LTQuNzg5em02LjYxNCAxOS40NDgtLjQ1OCAxLjA3M3MtLjM0MSAzLjA3OC0uMzQxIDMuOTMzYzAgLjg1Ni4zNDEgOC4wNC4zNDEgOC4wNGgyLjczN1Y4MS42MDFsLTIuMjgtMi43ODR6bS4wNTYgMTQuNTg0LTcuNjk1LjM0MiAyLjIyMiAxLjU0IDUuNDczLjg1NXYtMi43Mzd6bTM1Ljc0Mi0zNi40MjctMy4yNDggMy41OTFMOTYuNzUgNjkuNDZsLjM0Mi00LjEwNC05LjA2NS04LjM4em0tMy40MiAzMy41Mi01Ljk4NCAxLjE5Ni44NTQgNC43OWMyLjIyMyAxLjAyNiA1Ljk4Ni0xLjcxMSA1Ljk4Ni0xLjcxMWwtLjg1Ni00LjI3NnoiIGZpbGw9IiM0OTcyOGIiLz48cGF0aCBkPSJNNTAuNTc0IDYyLjYydjEuNTM4bDIuMTc0IDIuMzk1IDYuODQgMy4wNzguMTcyLTUuMTI5LTQuNzM5LS41MTYtNC40NDctMS4zNjd6bTUwLjA1OSAyNC4yODQtNS40NzMgMS43MTEtNS4yNSAyLjU2My0yLjc4OS0uNTEtMi4xNzIuODUzIDEuODMyIDE0LjM2OCA2LjY2OC0xLjg4MyAxMi42NTYtLjY4NCAxLjg4MS01LjgxNC0zLjQyLTEwLjA5LTMuOTMzLS41MTR6bS0yMi4wMSA0Ljc4Ny05Ljk3LjAwMi0xNi4wMjYuODU0LjI5MSA3Ljg2OSAxLjc2MiAxMC42IDMuNTQgMTQuMzY5IDcuODY2IDEuNzA5IDEyLjk5OC0xLjAyNi4xNy0yLjU2Ni0xLjU0LTEzLjg1Mi45MDktMTcuOTU5em0xLjMxNy0xLjM2Ni0zLjc2My05LjU3Ny0zLjkzNC01LjY0NHMuODU1LTIuMzk0IDIuMDUzLTIuMzk0aDMuOTMzbDMuNzYyIDEuMzY4LS4zNDEgNi4zMjgtMS43MSA5LjkyIiBmaWxsPSIjZmZmIi8+PHBhdGggZD0ibTUyLjExNSA2NS4wMTQtLjUxMy42ODUgMi45MDggMi4wNTEgNC43ODcgMS4wMjUtLjE3LTIuMDVjLTEuNzEuNTEzLTcuMDEyLTEuNzExLTcuMDEyLTEuNzExem0yMy43NyA3LjM1My0zLjkzMi41MTIgNi42NyAxNS43MzQgMS4zNjcuMTcyLjY4NC0xLjcxcy00Ljc5LTkuMjM2LTQuNzktMTAuNjA0YzAgMCAuODU2LTIuMDUyIDIuMDUzLTEuNTQgMS4xOTguNTE0IDMuNzY0IDEuODgyIDMuNzY0IDEuODgydi0zLjI0OWwtNS44MTYtMS4xOTd6bTE2LjI0OCAxNy45NTctMi4yMjMuODU0IDEuODgxIDkuNDA2Yy0uNjg0LS4xNzEtNS4xMyAxLjg4My01LjEzIDEuODgzbC41MSAyLjczNiAxLjg4NC0uNjg1IDUuOTg0LS44NTQgMS43MTEgMi4yMjMgNS4xMy4xNyAzLjA3OS0uNjg0IDIuNzM2LTQuMTAzLS4xNzItMy4wOC0xLjg4LTUuNDczYy41MTMgNC4xMDQtMS41NCA4LjAzOS0xLjU0IDguMDM5LS44NTUgMC0xMC40MzEtLjUxNC0xMC40MzEtLjUxNCAwLTEuMDI2LTEuNTQtOS45MTgtMS41NC05LjkxOHptLTEzLjE3LjE3LTIuNTY1IDEuMDI3cy0uODU0IDE3Ljc4NyAxLjcxMSAzMC40NDJjMCAwLTUuMTMgMy4yNDktMTIuNjU2IDQuMTAzbDE0LjM2NS0uNTEzIDEuNzExLTEuMDI2LTIuMDUyLTI4LjA0Ny0uNTE0LTUuOTg2em00LjQ3IDE4LjI5N2MtLjczNi4wMDQtMS44My41MjYtMi42MDMuNDc1LS4xMTMgMi43MDEuMjY2IDcuMDMzLjM5MyA5Ljg2NyAxLjc5Ni4wMDIgMi41NjUtLjM5MiAzLjkwNi0uODQ0LjE1MS0zLjMzNS0xLjA1Ny02LjQyMi0xLjQwNC05LjQ2N2ExLjEwNSAxLjEwNSAwIDAgMC0uMjkxLS4wMzF6IiBmaWxsPSIjZGNkOWQ4Ii8+PHBhdGggZD0iTTg0Ljc3NyA2My44MThjLTIuMTkyLjEwMi01LjE0OCAyLjg5Ny02LjUyNSAzLjM4Ny4xNzguNTEyLjQ3LjkxNy40OTIgMS41Ny45NjUtLjIzOCAyLjE0LS4wNzUgMi45NzcuMzM2LS45NjguMTA4LTIuMDM4LjEwMi0yLjY3OC41NjMtLjIzNS42NzcuMDU1IDEuNi0uMTAyIDIuNTQgMi4yOTYuNjQ4IDQuOTE5Ljk5NCA3LjgyIDEuMDc5LjU2Ni0uNzMzLjc1OC0yLjEzMy42OS0zLjUxOC0uMDgtMS42Ny0uNTE5LTUuMTA0LTEuNTUtNS43MDUtLjM0LS4xOTctLjcxOC0uMjctMS4xMjQtLjI1MnptLTIyLjUzNS43NDhjLTIuMzI0LjA1LTIuMDgyIDQuMTA4LTEuOTY5IDYuNTkyLjA5NSAyLjA5OCAxLjE4OCA0LjMxOCAxLjY2IDUuNzEzLjIyNC42NS4yNzQgMS4zNDIuODMgMS40Ny45ODQuMjMgNC4yMy0xLjA2NyA1LjE1NS0xLjU3MSAxLjk1NS0xLjA2NiAzLjQ3My0yLjc2IDUuMTMzLTMuODk3bC4wNjItMS42NThjLS45OTgtLjQ5OC0yLjE1LS44NTItMy42MTctLjkxNi45OTUtLjUgMi40NTctLjQ5MyAzLjM2My0xLjA4OGwuMDI2LS42NjJjLTEuNjU0LS4xMjctMi4yODUtLjg2NC0zLjM3NS0xLjQ2MS0xLjc4NC0uOTc0LTQuNDY0LTIuMDM3LTYuNzY4LTIuNDc3YTIuNCAyLjQgMCAwIDAtLjUtLjA0NXptMTMuNDMgMy40NTdjLS40NDIuMDA0LS45NjkuMTcxLTEuNTcuNTczLS4xMTQgMS4yNTkuMTggMS42Ny40MzMgMy4xMTUgMy40OTMgMS4wOTMgMy41MjUtMy43MDQgMS4xMzctMy42ODh6IiBmaWxsPSIjZDMzODMzIi8+PHBhdGggZD0ibTg0LjU1NyA2Mi42MjEtNi40OTggMy43NjItLjM0NCAxLjg4djMuNzYybDIuMzk0Ljg1NnMtMS4xOTctMS43MS0uMzQxLTIuMjIzYy44NTUtLjUxMyAxLjcxMSAwIDIuMjI0LS44NTUuNTEzLS44NTYgMC0xLjM2OS4xNy0yLjM5NS4xNzEtMS4wMjYgMS4wMjYtMS4xOTYgMS44ODEtMS4zNjcuODU1LS4xNyAzLjI1LS41MTMgMy41OTIuMzQybC0xLjAyNi0zLjA3OHptLTIxLjUzNiAxLjAzYy0uODQ3LS4wMTgtMS42MTkuMTIyLTIuMTg1LjUwNy00LjAyMSAyLjczNS0uNzggOS4wNTYgMS4xOSAxMi43NzRhNTUxLjU2IDU1MS41NiAwIDAgMC0uNTM4LTYuNDA5Yy0uMzYyLTMuOTguOTU3LTMuMjg1IDQuNDA4LTMuMjg1LjUyOCAwIDMuMjQ1LjYyOCAzLjQ0IDEuMDI2LjkzMyAxLjkwNS0xLjU2IDEuNDgxIDEuMDc0IDIuOTE4IDIuMjI0IDEuMjEyIDYuMTUyLS43MzcgNS4yNTQtMy40MzItLjUwMy0uNi0yLjYyLS4xODctMy4zNzktLjU4bC00LjAwOC0yLjA3OGMtMS4xNjgtLjYwNy0zLjM5Mi0xLjQwMy01LjI1Ni0xLjQ0MlptLS45OTYgMTMuMjhjLjA0Mi41MzIuMDg2IDEuMDYzLjEyNyAxLjU5NGwuNjEyLS4xODNjLS4yMDQtLjQwNS0uNDYtLjg4My0uNzM5LTEuNDF6IiBmaWxsPSIjZWYzZDNhIi8+PHBhdGggZD0iTTY3LjU2NS4wMDZjLTMuNTkuMDY4LTcuMTAxLjY2NS0xMC4wMjcgMS43NDItMi4xNzUuOC00LjI4MiAxLjUxNi02LjE5MiAyLjYzOC01LjExMSAzLTEwLjUzNyA1LjAwOC0xMi4wNTIgMTEuMDQ3LTMuNzM0IDEuNjcyLTQuODYgNi40NTEtNC42NzIgMTEuOTk3LjAzNiAxLjA4MS42MjMgMi40MzIuNDIgMy40NDktLjEwNC41MTYtLjgwNCAxLjE3Ny0uOTQ0IDEuNTEzLTEuNzkgNC4yNjctLjM1NSA5Ljg3NiAxLjcxMyAxMi45MDkgMS4yNSAxLjgzMiAzLjMyIDMuNDU3IDYuMDUgMy44ODguMTA5IDEuNjM1LjUwMiAzLjA0MiAxLjI1NyA0LjY5OS40NzggMS4wNDggMi4yNjMgMi45MzIgMS42MDYgNC4yNjktLjMzLjY3NC0zLjIzNyAyLjEzNy00LjIwMSAyLjcxNi0zLjI1NSAxLjk1Mi01LjYxNCAzLjE0OS04LjYxOSA1LjMxMi0xLjk0NCAxLjQtNC45ODUgMS41OC00LjUwNSA0LjgwOC4zMjMgMi4xNzggMS41NjMgNC44NzggMi4yNzIgNy4wNjIuNzY4IDIuMzU3IDEuODY4IDQuNTE2IDIuNSA2Ljk2MiAxLjQwNSA1LjQ1MSAxLjY5OCAxMC41ODcgMi4wNCAxNS45MTEuMTM0IDIuMDg1LS4wODggNC4yOTEuNDUzIDUuNDQyLjU1OCAxLjE5IDIuNjI2IDEuNTcgNC4xMiAyLjI2NCA0LjMxNSAxLjk5NSA4Ljg5MyA1LjA0MiAxNC41NTIgNC40MzcgMS4zNDkgNC41MzYgMi42MjQgOS4zNjcgNC4yNDMgMTMuMzQgNS44MDMgMi4wODYgMTQuOTY0IDEuNzYgMjAuOTk3IDEuMDM1IDEuODM0LS4yMjIgMy43NjktMS4xMjcgNC4yLTIuNzE3LS4xMjktLjk4LS4yNzItMS45NS0uMjEtMy4xMDkgMS44ODYtLjM5IDQuNDUzLS43MTIgNC44NjgtMi44LjU4Mi0yLjkyOC0xLjg0OS03LjEyMy0xLjAzOC0xMC4zMzYgMS4wOTItLjM1NCAyLjI1OC0uNjMxIDIuMDg0LTIuMzU1IDEuODQtLjk1OCA0LjAyMy0xLjE3MiA2LjM1My0xLjA4Mi4zLjU4LjcyNyAxLjEzOCAxLjExMSAxLjQ1NyAzLjI2NC42NTYgNi40MjUuNzEgOS4xMzUtLjE3NCAzLjA2Ny0xLjAwMiA0LjUzLTcuMjc1IDMuODI5LTEwLjI2LS40OTgtMi4xMTUtMS42MjQtNS41OC0yLjU4NC03LjYyOC0yLjYwMS01LjU2LTEwLjM1My0yLjA3LTE0LjUwMi0uMDA4IDIuMDEzLTUuMjk1IDMuNzQ0LTEwLjc4NSA1LjUyLTE2LjcyNS41My0xLjc4IDEuNTc4LTQuMzAzIDEuMzQzLTYuMTQ3LS4yMi0xLjczNC0yLjkyNC0zLjU1Ni00LjM0Ny00LjkzLS43OTEtLjc2Mi00LjQ3OS0zLjU2Mi00LjY5My00LjYxLS4yMDctMS4wMTQgMS41MDQtMy4zMTEgMi4wNTQtNC40Ni43OS0xLjY0NCAxLjM1Ni0zLjY1NiAxLjc0NS01LjAyNSAyLjktMTAuMTk2IDMuMTk1LTI0LjIwNC0uOTUxLTMyLjU4Ni0xLjU3LTMuMTc1LTUuOTYtNy41Ni04LjcwNS05LjYzN0M3OS43NCAxLjI1NCA3My41NDYtLjEwNiA2Ny41NjUuMDA2Wm0uNDc4IDIuODRDNzIuODkgMi43OTkgNzguMjggNC41MDkgODEuOTMgNi41NjhjMy4wNSAxLjcyIDUuMyA1LjA0OCA3LjQ0NiA3LjgxNy0zLjAwOS0uODkzLTUuNTcuNjQyLTUuMTAzIDMuMTI0IDIuNTE5LTIuMzA5IDYuODIyLS4wMjUgOC4wOTUgMi41MjggMS4yMTcgMi40NCAxLjIwOSA2LjA1NyAxLjM5NiA5LjY4NS40NTMgOC43OTgtMS42MSAxNy44NzUtNi4wMzEgMjQuMjM0LTEuMTgyIDEuNjk4LTIuMTc0IDMuNTU0LTMuODM2IDQuNzIzLTQuMDA2IDIuODEzLTEwLjA5NSA1LjM2My0xNS4zMDkgMy42MTQtNi44OS0yLjMxMi0xMC4wMi02LjkwMy0xMy44MS0xMi4xNi4xMDMgMi44ODggMi4xMzQgNS4yNTggNC4xNCA3LjQ2NyAxLjc0NSAxLjkyNSAzLjg1MSA0LjEgNi4xMTcgNC45OTgtMS44OS0uNDQ0LTQuNzkyLS41ODMtNS41OCAxLjExNC00LjQxLS4yOTMtOC41MDgtLjc0NC0xMC41OTQtMy43MzMtMS42NDQtMi4zNTYtMy4zMTQtNi4zNjMtNC4wNjMtOS40NTgtLjE1My0uNjM2LS40MTUtMS45OS0uMzUxLTIuMzM3LjI0Ni0xLjM0MyAyLjYzOC0xLjkzMyAxLjY5Ny0zLjgxLTEuNzM2LS4wMTYtMi4xMjcgMS41OC0zLjcyIDEuNzM4LTQuMTI1LjQwOC03LjAzNS01LjQ2Ny02Ljg0OC05LjAxMi4xNTktMy4wMTQgMi43MDctNS44OTggNi4xOTItNS41MTcgMi40NjMuMjcgMy4zIDIuOTU4IDMuNzc4IDUuMzUgMS40Mi4wNzYgMy40NzEtLjA2MSA0LjE0My0xLjE2OS0uMDk3LTIuNzAzLTEuMzUyLTQuODcxLTEuMjY2LTcuMzU1LjE2Mi00LjY2OCAyLjcwNS04Ljg4Ljc0My0xMy40NzggMi4xLTQuNzY0IDguMjYxLTguNTI0IDEyLjgxOC0xMC43OTcgMS43NjUtLjg4IDMuODU2LTEuMjY0IDYuMDYtMS4yODZ6TTU1LjUwNSA1LjE5MmMuMTk4LjAzMi4zOC4xODYuNTU2LjM3NC0uMDMuODExLS44My43OTQtMS4zNyAxLjA1NC0uODQgMS4wMzMtMi4wNjggMS41MTYtMy4wOSAyLjY0OC0xLjA0OSAxLjE2LTIuMjIyIDQuMjc2LTMuNjEyIDQuNjItLjY5Ny4xNzQtMS40OTMtLjEyLTIuMS0uMDgtMS42MDUuMTAxLTIuNzM1LjkyMy00LjM2MyAxLjE1OSAyLjEwMi00LjU5NSA4LjY1OS04LjMxMyAxMy43NzQtOS43NjJhLjQ2OC40NjggMCAwIDEgLjIwNS0uMDEzem04Ljc0IDkuOTczYy0yLjYzNy4wMDMtNS42NCAyLjgyMi02LjQyMyA0Ljk3My0uMzE4Ljg3NC0uODIgMi41OS40NDEgMi44OTUgMS40MTMtMy4xNDkgMy43MjktNi4xODUgOC4zOS01LjEuODk1LTEuNDcxLS43MDUtMi41NTItMS44ODctMi43M2EzLjQ3NyAzLjQ3NyAwIDAgMC0uNTIyLS4wMzh6bS0xNi42NTYuNDhjMS44MDIgNC41ODYtMS4yOTMgMTAuMDM2LS4xNCAxNS4wNTEuMzUzIDEuNTM2IDEuNTc0IDMuOTItLjM3NiAzLjk3Mi4wNTEtNC4zNy01LjM3LTcuMTQzLTkuNDU1LTQuNTc0LS4yNzMtMy4zMTQtLjc0Ni03Ljk3MyAxLjUxNC0xMC40NTkgMi4wODUtMi4yOTYgNC45NTktMy43MjUgOC40NTctMy45OXptNDEuNzc2IDcuNTk3Yy0uMTQ5IDIuNTE3Ljc4NiA0LjAzMiAxLjQzNSA1LjgxMi0xLjEyMi43MDYtMy4zMDUuMjY2LTQuNTcuODE5LS4wOSAzLjcyMyA1Ljc2IDEuODg4IDYuNjUtLjE4NS0xLjMzLTEuOTMyLTIuMjQxLTQuMjUtMy4yOTUtNi40MzdsLS4yMi0uMDF6bS0yMC4zMjUuMDU3Yy0uNjkyIDEuOTY0IDEuMTg4IDUuMjk4IDIuMjQyIDYuOTg0LTEuMzczIDEuMzMzLTMuODQyLjIyNi01LjY3OS4xNC0xLjc1MyAyLjc2OSAzLjQyMyAzLjI5IDUuNjQ0IDIuNjM0LjYwOC0uMTc5IDEuNjYtMS4wOSAxLjgwNS0xLjUuNjE3LTEuNzMzLS42MjctMi40OTMtMS4yNjctMy4xMTctMS40Mi0xLjM4NC0xLjc0Ni0zLjMxLTIuNzQ1LTUuMTQxem0xMC41NDkgMS44MWMtLjEzNC0uMDE4LS4yOTUuMDMtLjQ4OC4xNy0uMTI1IDQuNjE2IDMuMzA1IDguNDM3IDUuODYzIDExLjUyIDEuMjUgMS41MDUgMi43NTYgMi4zNjUgMS4zNjkgNC43MDMtMi4yMzYuODUtNS44NTUgMy4yODUtOC45NjQgMi43NTMtMS42NS0uMjgyLTEuMjc4LTIuMTU1LTEuODctMy4xNzMtMS4xMzggMS40OTctLjY5MiAzLjc2Mi40OCA0Ljc4IDUuNDc5LjU0MiA5LjIwOC0xLjc5NCAxMi41NTItMy45NDMtLjEzMy0uODQyIDEuMDEyLTIuMzYuNjk0LTMuNjI2LS4xMS0uNDM2LTEuMTAyLTEuMDY4LTEuNzA0LTEuNzI3LTIuNDUzLTIuNjc1LTUuODE0LTYuNjcyLTcuMTUtOS43OTgtLjEyLS4yOC0uMjAxLTEuNTgzLS43ODItMS42NnptLTM4Ljk4IDguNjM1Yy0xLjI2Ny0uMDItMi40MTUuODE1LTIuNjg2IDIuNzgzLjU2Mi0uMzY4IDEuMDE1LTEuNDE1IDIuMDI4LS45MTctLjg5IDEuNzM3LS42NzYgNS4xMi41MzUgNi4yMi0uMDA3LTIuMDYyLS4zMjgtNS41ODcgMS40My01LjQ4IDEuMjMxLjA3NCAxLjQ4IDIuNzEgMi41MjggMy4zMDguNzIzLTMuNDc4LTEuNzIyLTUuODgyLTMuODM1LTUuOTE0em01MC4wNTEgMTAuMzZjLTIuNjczIDEuMjItNC44MyAyLjk5Ny04LjMyMiAzLjMzMi0uMTY5LjU3Ny0uMDk3IDIuMDMzLS4wMDQgMi45OSA0LjU2Ny0uMDk1IDYuNzctMy4zNTggOC4zMjYtNi4zMjF6bS0yMS44ODQgMS45MjFjMS4zMzUgMy41NzMgNy4zNTMgNC44MzMgMTIuNDQzIDQuNTc5LS4wMDgtMS4wNTgtLjAwMy0yLjEzLS4yMTUtMi45OTgtMy45Ni4xMTYtOS4zMTUtLjA0OS0xMi4yMjgtMS41OHptLS41NTMgMi44NThjLTIuNTczLjAwMy0uNDAzIDEuNDM0LjAzMyAxLjk5NC45MDIgMS4xNiAxLjk2IDMuMTM5IDMuNjA4IDQuMDE1IDIuNTk4IDEuMzggNy43NTguODAxIDkuNjMuMDQuNjkyLS4yOCAxLjI1LTEuMDU3IDEuNTA3LTEuNzEzLTUuODQuMTQtMTIuNzYzLjcyMi0xNC43NzgtNC4zMzZ6bTE5LjQzNiA5LjgzYzIgMS42MTEgMy4yMDggMy4xMjcgNS4xMjYgNC44NSAxLjA0LjkzMyAzLjA4OCAyLjA1MSAzLjI5NSAzLjU2LjExNS44NDItLjQwMSAyLjkwNS0uNTkxIDMuODUyLS44NCA0LjE1NC0yLjczIDkuNjQyLTQuNTMgMTMuOTk1LS42NTQgMS41ODItMS4yOCAzLjU2LTIuMTQzIDMuOTAyLTIuMzY0LjkzNi01LjIzMy0uMDkxLTcuMjQyIDEuMTYgMi43LTQuNjg1IDUuNjQtOS4xMTEgOC4yODYtMTMuODUyLS40MDMtLjk0LTEuMzkxLTEuMzQxLTEuNjc4LTIuMzg4IDEuODU4LTMuNTA5IDEuMDA0LTE0LjQwMy0zLjczOC0xMi4xMDMuNjYzLS45NzQgMi40MDQtMS43NzggMy4yMTUtMi45NzZ6bS00MS43MjQgMi40OGMuNDMxLS4xNyAzLjU3NyAzLjkyMyA0LjA0MiA0LjI1NSAyLjU1IDEuODEgNS43MTYgMy4yNCA4LjY3NyA0LjY1My4xODEgMS4zNTkuNiAzLjEyIDEuMzM4IDUuNDc2LjgxMyAyLjYwMiAxLjQ4NCA2LjI3NCA0LjkyMiA0LjM5OC0uMzI3IDEuNDg2LTIuMjM3IDIuNDA4LTEuNzEgNC4xNDEuMzMgMS4wODcgMy45NCAyLjQzIDUuMDg0IDMuMDc2IDIuMTExIDEuMTkgNC4wMzcgMS44NDggNS42NTkgMi41NDQtNy4zNy4yMDItMTQuMjkxLjgwMi0yMS4xMDIgMS43MjktLjgxNi0xLjI2NC0uNDg3LTMuMjEyLS41NzMtNS4yMjUtLjA5NC0yLjE4Ni44MTUtNy4xMTQtLjA0NC03LjQyLS45NzEtLjM0NS0xLjE1MyAxLjYyMy0xLjE4OCAyLjA1Ny0uMTgyIDIuMzA4IDEuMDk5IDcuMTk1LS4xNjQgOS45NTgtMS4zODItLjM5MS0yLjA2My0xLjQzLTMuMzU4LTEuOTAyLS41MDggMS42IDEuMDUyIDEuNjc3Ljg5MiAyLjY5My0uMjEyIDEuMzQzLTIuNzU3LjIyLTIuNzQzIDIuMjE3IDEuNjU3LjI2NiA0LjE5OS0uNTE1IDUuOTcuMjMyLjQ2MyA1LjQzMyAxLjIwNyAxMC41ODEgMi4wMjIgMTYuMzUyLTcuMDQ4LS4zNjYtMTEuNjEtMy44NjgtMTYuODA1LTYuMjk3LS4zMjMtMTEuNDktMi4xNTQtMjMuNDEtNi42ODgtMzMuMTQgNC43NTYtMy42NyAxMC4wNzgtNy41NTIgMTUuNzctOS43OTZ6bTM5LjA4MiAyLjYyNmMuMzE2LjAxNS42MTMuMDk0Ljg4NC4yNTIgMS4wMzIuNjAyIDEuNDcxIDQuMDM2IDEuNTUxIDUuNzA2LjA2NyAxLjM4NS0uMTI2IDIuNzgzLS42OSAzLjUxNy0yLjkwMi0uMDg1LTUuNTI0LS40My03LjgyLTEuMDc4LjE1Ny0uOTQtLjEzNS0xLjg2NS4xLTIuNTQzLjYzOS0uNDYgMS43MTEtLjQ1MiAyLjY3OC0uNTYtLjgzNi0uNDEyLTIuMDEtLjU3NS0yLjk3NS0uMzM3LS4wMjMtLjY1NC0uMzE2LTEuMDU4LS40OTMtMS41NyAxLjQyNy0uNTA5IDQuNTU0LTMuNDk2IDYuNzY1LTMuMzg3em0tNS4yLjEyN2MtMS4yMTguNzk0LTIuMjU1IDEuNzg3LTMuNDI0IDIuNjM1LTIuNTkzLjEyOS00LjAwOC0uMTc5LTUuOTEzLTEuNjY4LjAzLS4xMi4yMjItLjA2Ni4yMy0uMjEzIDIuNzc1IDEuMjM3IDYuMzA0LS41MDQgOS4xMDYtLjc1NHptLTI3LjM0Ny4wNDljMS40NDcgMS4wMDUgNC4yNDcuNzU3IDYuMzc4IDEuMTMxLjExLjY4My0uNDQyIDEuNTgtLjQzMiAyLjUzMS0xLjc5My0uMTEtNy40MjctMi4xNi01Ljk0Ni0zLjY2MnptOS43NzIuNTczYy4xNTUtLjAwNC4zMjEuMDExLjUuMDQ1IDIuMzA0LjQ0IDQuOTg0IDEuNTAyIDYuNzY4IDIuNDc3IDEuMDkuNTk2IDEuNzIxIDEuMzMyIDMuMzc1IDEuNDYtLjAwNy4yMi0uMDE3LjQ0LS4wMjUuNjYyLS45MDYuNTk1LTIuMzY5LjU4OC0zLjM2MyAxLjA4OCAxLjQ2Ni4wNjQgMi42Mi40MTcgMy42MTguOTE1bC0uMDY1IDEuNjU5Yy0xLjY2MSAxLjEzNy0zLjE3OCAyLjgzLTUuMTMzIDMuODk2LS45MjUuNTA0LTQuMTcgMS44MDItNS4xNTMgMS41NzItLjU1Ny0uMTI5LS42MDctLjgyLS44My0xLjQ3LS40NzMtMS4zOTUtMS41NjQtMy42MTQtMS42Ni01LjcxMi0uMTEzLTIuNDg1LS4zNTYtNi41NDUgMS45NjgtNi41OTJ6bTEzLjI5NCAzLjQ2M2MuMTM3LS4wMTEuMjY3LS4wMDcuMzkuMDExIDIuMTI2LjMxMyAxLjk3MiA0LjcyMi0xLjM5MiAzLjY3LS4yNTMtMS40NDQtLjU0Ni0xLjg1Ni0uNDMzLTMuMTE1LjU0Mi0uMzYxIDEuMDIyLS41MzMgMS40MzUtLjU2NnptMS45MzYgNS4wMTRjMS4yMTguMTMgMi4xODIgMS44MSAzLjkyIDEuNy0uMjc5IDQuNTMyLS4xMzMgOS4wOC0xLjM5OCAxMy4yMzItMi4zNTctNC4zMjItMy43NDQtOS41NC02Ljc5NS0xMy4yMTcuMzIyLS4zNDIuNjEtLjcyMS45MjYtMS4wNzEgMS4zODIuNTc4IDIuMjg0LS43NTggMy4zNDctLjY0NHptNy4wMDggMS40NDJjMS42NzgtLjAxMyAzLjA1MiAxLjA4NCAzLjgwNyAyLjI5Ny0yLjM2NCA0LjA1LTQuNjI2IDguMjA4LTcuNDMgMTEuNzggMS4xNzUtMy40NTggMS42NzktOS4yNDUgMS44NTctMTMuNjU3YTQuMjIyIDQuMjIyIDAgMCAxIDEuNzY2LS40MnpNNzEuNzEgNzYuMDNjMi44IDMuNTU0IDQuNTA0IDguMTI1IDYuMzggMTIuNTM3LTQuNDMyLTEuMzM2LTguOTYtMy41MDQtMTIuODQ0LTUuNzAyLjc2Mi0zLjMwNCAzLjc1LTUuMDE2IDYuNDY0LTYuODM1em0yOS41MTEgMTEuNzI4YzEuMjE3LjAzIDIuNDI2IDEuMDE4IDIuOTU1IDEuODE5Ljk1NiAxLjQ0NCAxLjg0OSA1LjY5NSAyLjM1IDcuOTUyLjc0NyAzLjM1OS0uOTMyIDYuNjI5LTMuNjAzIDcuMjc3di4wMDFjLTEuOTQ0LjQ3Mi00LjkyNi41OTYtNi4xOTktLjAxOSAxLjU1OC0uODUxIDMuODk5LS44NTYgNS43MDItMS40NC0yLjU4My0xLjExMi02LjQwNS0uMDY0LTkuNTExLS4yNTgtLjM3NS0zLjgzNS0uNjU4LTcuOTkzLTEuNTY3LTExLjAyIDEuODEzLTEuOTI3IDYuMTkzLTIuMzkgOC42OC0zLjk4MWEyLjA3NyAyLjA3NyAwIDAgMSAxLjE5My0uMzMxem0tLjIxMSAzLjU3OGMtMy4xODMuMDk0LTUuNjcuOTM3LTcuMDkgMi45MzggMi41ODMuMTY1IDQuNDQzLTIuNDA4IDcuMDktMi45Mzh6bS0xMi41NC43ODVjLjIyNS4wMS40NDcuMDM1LjY2LjA4MyAxLjY5MiAyLjkxIDIuMDU2IDcuNzQ5IDIgMTEuMjYxLTEuMDU1LjIwNC0xLjc0LjgwOC0zLjAyLjc2OC0uMzI3LTQuMDAxLTEuMjU2LTguMjA4LTEuNjM4LTEyLjAyLjYxLS4wMTIgMS4zMi0uMTIgMS45OTctLjA5MnptLTE5LjYwMy4wNDNjMy4zNC0uMDU0IDYuNTguMTQyIDkuMzg1LjcyNi42ODUgNC40NTMuNDMgOC44NDUuOTMgMTMuMjEuNjYyIDUuODA4LjE2NiAxMi40MzQgMS4zIDE3Ljg3Ni02LjE3MyAxLjkxMy0xNC41OSAxLjcyOC0yMS41NzQtLjM5Mi0zLjE0Ny05LjY0My00Ljg2My0xOC43OTYtNi4wNDctMjkuNjg1IDQuNTg3LS44NTggMTAuNDM3LTEuNjQ1IDE2LjAwNi0xLjczNXptMTQuODI0LjM4NGMxLjEwMyAzLjk4NyAxLjAzNyA5LjA2IDEuNTc5IDEzLjU2Ny0xLjY2OC4zNjYtMi44ODguNTQ1LTQuNjgzLjgxNS0uMzU3LTQuNjgyLS42My05LjI5NS0uNTY2LTEzLjk3MSAxLjI3Mi0uNDI2IDIuMzk0LS40IDMuNjctLjQxMXptMTQuNDg2IDIuMjk2Yy0xLjI2LjAxNi0yLjM5NC4yOS0yLjg4IDEuMDMyIDIuMTkuMTggNC43MjItLjE3IDYuODgtLjM5OC0uOTg0LS4zNC0yLjU3Mi0uNjUzLTQtLjYzNHptLS4zNjEgMy4yNGMtMS4xMjguMDE0LTIuMTIzLjIyOC0yLjYzNC43NzcgMi4zMDQuMTkzIDUuMzE4LjI0MSA3Ljc0My4xODktLjk4My0uNDU4LTMuMjMtLjk5LTUuMTEtLjk2NnpNODMuMDk4IDEwOC44MmMuMjM2LS4wMzcuNDUtLjA0NS42MjcuMDAyLjM0OCAzLjA0NSAxLjU1NSA2LjEzMSAxLjQwNCA5LjQ2Ni0xLjM0LjQ1Mi0yLjExLjg0OC0zLjkwNy44NDUtLjEyNi0yLjgzNC0uNTA2LTcuMTY2LS4zOTItOS44NjguNjYyLjA0NCAxLjU2MS0uMzM0IDIuMjY4LS40NDV6IiBmaWxsPSIjMjMxZjIwIi8+PHBhdGggZD0iTTg0LjQ4IDc0LjQ4NmE0LjIyNSA0LjIyNSAwIDAgMC0xLjc2Ny40MmMtLjE3OCA0LjQxMi0uNjggMTAuMTk5LTEuODU2IDEzLjY1NiAyLjgwNS0zLjU3MSA1LjA2Ni03LjczIDcuNDMtMTEuNzc5LS43NTYtMS4yMTMtMi4xMjktMi4zMS0zLjgwNy0yLjI5N3pNNzEuNzEgNzYuMDNjLTIuNzE0IDEuODItNS43IDMuNTMyLTYuNDYzIDYuODM2IDMuODg0IDIuMTk4IDguNDEyIDQuMzY1IDEyLjg0NCA1LjcwMS0xLjg3Ni00LjQxLTMuNTgtOC45ODItNi4zODEtMTIuNTM3eiIgZmlsbD0iIzgxYjBjNCIvPjxwYXRoIGQ9Ik03OS44MTcgNjMuOTQ1Yy0xLjIxOC43OTUtMi4yNTUgMS43ODctMy40MjQgMi42MzYtMi41OTMuMTI4LTQuMDA4LS4xOC01LjkxMy0xLjY2OS4wMzEtLjEyLjIyMy0uMDY2LjIzLS4yMTMgMi43NzUgMS4yMzcgNi4zMDQtLjUwNCA5LjEwNy0uNzU0IiBmaWxsPSIjZjBkNmI3Ii8+PHBhdGggZD0iTTc5LjEzNSA3Ni43MjhhLjk0Ljk0IDAgMSAxLTEuODgxIDAgLjk0Ljk0IDAgMCAxIDEuODgxIDBtLjk0MSA0LjM2MWEuOTQuOTQgMCAxIDEtMS44ODIgMCAuOTQuOTQgMCAwIDEgMS44ODIgMCIgZmlsbD0iIzFkMTkxOSIvPjwvc3ZnPg==;" vertex="1" parent="1">
          <mxGeometry x="203" y="159" width="76" height="76" as="geometry" />
        </mxCell>
        <mxCell id="h0hd5ZxkmlX1thas-wsX-3" value="" style="shape=image;verticalLabelPosition=bottom;labelBackgroundColor=default;verticalAlign=top;aspect=fixed;imageAspect=0;image=data:image/svg+xml,PHN2ZyB4bWxucz0iaHR0cDovL3d3dy53My5vcmcvMjAwMC9zdmciIHJvbGU9ImltZyIgdmlld0JveD0iMCAwIDI0IDI0IiBoZWlnaHQ9IjgwMHB4IiB3aWR0aD0iODAwcHgiIGZpbGw9IiMwMDAwMDAiPjx0aXRsZT5IYXJib3IgaWNvbjwvdGl0bGU+PHBhdGggZD0iTTEyLjA1NzMuMDAyMkM3LjQ1NS0uMDIwNyAzLjI0NTMgMi41OTEyIDEuMjIxOCA2LjcyNDgtLjgwMTYgMTAuODU4NC0uMjgyIDE1Ljc4NTIgMi41NTkxIDE5LjQwNTljMi44NDEgMy42MjA4IDcuNTAyNyA1LjI5NzQgMTEuOTk5IDQuMzE1MyA0LjQ5NjMtLjk4MiA4LjAzNDYtNC40NDk4IDkuMTA3MS04LjkyNTQuMDA2Mi0uMDI0OS4wMTMzLS4wNDk0LjAxOTItLjA3NDYuMjA5LS44OTI5LjMxNS0xLjgwNjkuMzE1Ni0yLjcyNCAwLS4wMzE3LS4wMDIyLS4wNjMtLjAwMjQtLjA5NDgtLjAwMTItLjEzNzMtLjAwOTUtLjI3MjYtLjAxNTItLjQwODgtLjAxOS0uMjY2OS4wMzk5LjI2NDUgMCAwIC4wMzk5LjI2NDUtLjAxOS0uMjY2OSAwIDB2LS4wMDAzYTExLjkzMTggMTEuOTMxOCAwIDAwLS4yMDQ1LTEuNzY2M2MtLjAzMzQtLjE3My0uMDY3Mi0uMzQ1OC0uMTA3OC0uNTE2NGExMS45MDk3IDExLjkwOTcgMCAwMC0uOTU0Ny0yLjYwMThjLS4wMDc3LS4wMTUxLS4wMTQxLS4wMzExLS4wMjE5LS4wNDZhMTIuMDM4MiAxMi4wMzgyIDAgMDAtMS4yODA1LTEuOTljLS4wNjk0LS4wODgtLjEzNjMtLjE3OC0uMjA4LS4yNjM4YTEyLjEwMDEgMTIuMTAwMSAwIDAwLTIuMDUzMy0xLjk0MTcgMTIuNDA1NiAxMi40MDU2IDAgMDAtLjMzMDUtLjIzNjIgMTEuOTk3OCAxMS45OTc4IDAgMDAtNi43NjM5LTIuMTI5em0uMjE0MyAyLjIxMDVhOS43ODE4IDkuNzgxOCAwIDAxNC45OTI2IDEuNTM3OGwtNS42ODMgNS45MTAzIDcuODI1NS00LjA1YTkuODQ5MiA5Ljg0OTIgMCAwMTEuMTU0NCAxLjY0NzVjLjAwNjYuMDEyLjAxMjMuMDI0NC4wMTg5LjAzNjVsLTguODQ0OCAyLjg0MjMgOS43OTk0LS4zMzM3YTkuNzI5NSA5LjcyOTUgMCAwMS4yMjQ2IDEuNTMwNWwtMTAuMTc4LS43MzA0IDkuOTg1IDMuNDY0MWMtLjk4IDQuNTAwNC00Ljk2MDMgNy43MTE5LTkuNTY2MiA3LjcxODItLjA4OTUgMC0uMTc4LS4wMDQzLS4yNjctLjAwNjdsLS4xMDI2LTEuMjU1NC00LjczODYtMi4wODgyLS4xNTk3IDEuODA1NWMuMTk4Mi4xMjM0LS4yMDY2LS4xMDg3IDAgMC0uMjA2Ni0uMTA4Ny4xOTgyLjEyMzQgMCAwYTkuNzg3IDkuNzg3IDAgMDEtNC41MjA5LTguMjQzN2MtLjAwMzgtNS41MTQxIDQuNTQ4NS05Ljk0MTYgMTAuMDYwNC05Ljc4NDZ6TTkuMTQzNCA1LjkwNTRhLjIwMS4yMDEgMCAwMC0uMTk0My4ydi4xNDY3TDYuODIgOC4zMzU3di42NTI1aC4zODM0djIuMjdINi44MnYxLjExMjVoLjYwODhsLS4xNDA4IDEuNTg5NiAzLjk0OCAxLjczOTYtLjI3MjQtMy4zMjkyaC41MTY3di0xLjExMjVoLS4zODMydi0yLjI3aC4zODMydi0uNjUyNUw5LjM1MDkgNi4yNTJ2LS4xNDY3YS4yMDEuMjAxIDAgMDAtLjIwNzUtLjJ6TTcuODE5NyA4Ljk4ODJoMi42NjA3djIuMjdoLS42MzEydi0uOTY5NWMwLS45MzItMS4zOTgtLjkzMi0xLjM5OCAwdi45Njk1aC0uNjMxNXptLS41ODEgNS41MjhsLS4wNjY1Ljc1MDYgNC4xNzg4IDEuODQxNC0uMDY2Mi0uODA5MnptLS4xMTU2IDEuMzA2NGwtLjA2NjIuNzUwNiA0LjQwOTIgMS45NDMxLS4wNjYyLS44MDl6bS0uMTE1NCAxLjMwNjVsLS4wNjY1Ljc1MDMgNC42NCAyLjA0NS0uMDY2LS44MDg4WiIvPjwvc3ZnPg==;" vertex="1" parent="1">
          <mxGeometry x="446.5" y="159" width="76" height="76" as="geometry" />
        </mxCell>
        <mxCell id="h0hd5ZxkmlX1thas-wsX-4" value="" style="shape=image;verticalLabelPosition=bottom;labelBackgroundColor=default;verticalAlign=top;aspect=fixed;imageAspect=0;image=data:image/svg+xml,PHN2ZyB4bWxuczp4bGluaz0iaHR0cDovL3d3dy53My5vcmcvMTk5OS94bGluayIgeG1sbnM9Imh0dHA6Ly93d3cudzMub3JnLzIwMDAvc3ZnIiB2aWV3Qm94PSIwIDAgMTI4IDEyOCI+PGRlZnM+PGNsaXBQYXRoIGlkPSJhcmdvY2Qtb3JpZ2luYWwtZSI+PHBhdGggZD0iTTQyIDQxaDQ0djUxSDQyem0wIDAiLz48L2NsaXBQYXRoPjxjbGlwUGF0aCBpZD0iYXJnb2NkLW9yaWdpbmFsLWQiPjxwYXRoIGQ9Ik0wIDBoMTI4djEyOEgweiIvPjwvY2xpcFBhdGg+PGNsaXBQYXRoIGlkPSJhcmdvY2Qtb3JpZ2luYWwtYyI+PHBhdGggZD0iTTAgMGgxMjh2MTI4SDB6Ii8+PC9jbGlwUGF0aD48Y2xpcFBhdGggaWQ9ImFyZ29jZC1vcmlnaW5hbC1mIj48cGF0aCBkPSJNODUuNjk1IDQxLjEzM2wtMi41NSA1OC4yMzhINDQuODg3bC0yLjEyNS01OC4yMzgiLz48L2NsaXBQYXRoPjxjbGlwUGF0aCBpZD0iYXJnb2NkLW9yaWdpbmFsLWIiPjxwYXRoIGQ9Ik0wIDBoMTI4djEyOEgweiIvPjwvY2xpcFBhdGg+PG1hc2sgaWQ9ImFyZ29jZC1vcmlnaW5hbC1sIj48ZyBmaWx0ZXI9InVybCgjYXJnb2NkLW9yaWdpbmFsLWEpIj48cGF0aCBmaWxsLW9wYWNpdHk9Ii4yNTEiIGQ9Ik0wIDBoMTI4djEyOEgweiIvPjwvZz48L21hc2s+PG1hc2sgaWQ9ImFyZ29jZC1vcmlnaW5hbC1oIj48ZyBmaWx0ZXI9InVybCgjYXJnb2NkLW9yaWdpbmFsLWEpIj48cGF0aCBmaWxsLW9wYWNpdHk9Ii4yMiIgZD0iTTAgMGgxMjh2MTI4SDB6Ii8+PC9nPjwvbWFzaz48bWFzayBpZD0iYXJnb2NkLW9yaWdpbmFsLWoiPjxnIGZpbHRlcj0idXJsKCNhcmdvY2Qtb3JpZ2luYWwtYSkiPjxwYXRoIGZpbGwtb3BhY2l0eT0iLjUwMiIgZD0iTTAgMGgxMjh2MTI4SDB6Ii8+PC9nPjwvbWFzaz48ZyBjbGlwLXBhdGg9InVybCgjYXJnb2NkLW9yaWdpbmFsLWIpIiBpZD0iYXJnb2NkLW9yaWdpbmFsLWkiPjxwYXRoIGZpbGw9IiNmYmRmYzMiIGQ9Ik01OC40ODggMzAuNTA4YTIuOTc0IDIuOTc0IDAgMTEtNS45NDgtLjAwMyAyLjk3NCAyLjk3NCAwIDAxNS45NDguMDAzem0wIDAiLz48L2c+PGcgY2xpcC1wYXRoPSJ1cmwoI2FyZ29jZC1vcmlnaW5hbC1jKSIgaWQ9ImFyZ29jZC1vcmlnaW5hbC1nIj48cGF0aCBmaWxsPSIjZTM0ZTNiIiBkPSJNODQuNDIyIDY1LjM2M3MyLjU1LTIyLjUzMS0uODUyLTMxLjAzMUM3Ny4xOTUgMTkuNDUzIDYyLjMxNiAyMC43MyA2Mi4zMTYgMjAuNzNzOC41IDMuMzk5IDguOTI2IDE2LjE1M2MuNDI2IDguOTI2IDAgMjIuMTA1IDAgMjIuMTA1em0wIDAiLz48L2c+PGcgY2xpcC1wYXRoPSJ1cmwoI2FyZ29jZC1vcmlnaW5hbC1kKSIgaWQ9ImFyZ29jZC1vcmlnaW5hbC1rIj48cGF0aCBmaWxsPSIjZTk2NTRiIiBkPSJNODMuMTQ1IDkwLjg2N1Y4Ny40N2MtNS45NSAzLjM5OC0xMi4zMjkgNi44LTE5Ljk3NyA2LjgtOC41MDQgMC0xNC4wMzEtMy44MjQtMTkuNTU1LTYuOGwuNDIyIDMuMzk4czYuMzggNi44MDUgMTkuNTU1IDYuODA1YzEyLjMyOC0uNDI2IDE5LjU1NS02LjgwNSAxOS41NTUtNi44MDV6bTAgMCIvPjwvZz48ZmlsdGVyIGhlaWdodD0iMTAwJSIgd2lkdGg9IjEwMCUiIHk9IjAlIiB4PSIwJSIgZmlsdGVyVW5pdHM9Im9iamVjdEJvdW5kaW5nQm94IiBpZD0iYXJnb2NkLW9yaWdpbmFsLWEiPjxmZUNvbG9yTWF0cml4IHZhbHVlcz0iMCAwIDAgMCAxIDAgMCAwIDAgMSAwIDAgMCAwIDEgMCAwIDAgMSAwIiBpbj0iU291cmNlR3JhcGhpYyIvPjwvZmlsdGVyPjwvZGVmcz48cGF0aCBmaWxsPSIjZTk2NTRiIiBkPSJNNDQuMDM1IDg5LjU5NHMtLjg0NyAyLjU1LTIuMTI1IDMuODI0YTMuODQ0IDMuODQ0IDAgMDEtMi45NzIgMS4yNzcgNDkuOTQ2IDQ5Ljk0NiAwIDAxLTYuMzggMS4yNzRzMi45NzcuNDI2IDYuMzguODUxYzEuMjczIDAgMS4yNzMgMCAyLjEyNC40MjYgMi4xMjYgMCAyLjk3My0xLjI3NyAyLjk3My0xLjI3N3ptMzkuMTEgMHMuODUxIDIuNTUgMi4xMjUgMy44MjRhMy44NTggMy44NTggMCAwMDIuOTc2IDEuMjc3IDQ5LjggNDkuOCAwIDAwNi4zNzUgMS4yNzRzLTIuOTczLjQyNi02LjguODUxYy0xLjI3NCAwLTEuMjc0IDAtMi4xMjYuNDI2LTIuNTUgMC0yLjk3Ni0xLjI3Ny0yLjk3Ni0xLjI3N3ptMCAwIi8+PHBhdGggZmlsbD0iI2I2Y2ZlYSIgZD0iTTEwOS45MjYgNDcuNTA4YzAgMjUuMzU1LTIwLjU1NSA0NS45MS00NS45MSA0NS45MS0yNS4zNTYgMC00NS45MS0yMC41NTUtNDUuOTEtNDUuOTEgMC0yNS4zNTIgMjAuNTU0LTQ1LjkwNiA0NS45MS00NS45MDYgMjUuMzU1IDAgNDUuOTEgMjAuNTU0IDQ1LjkxIDQ1LjkwNnptMCAwIi8+PHBhdGggZmlsbD0iI2U2ZjVmOCIgZD0iTTEwOC4yMjcgNDcuNTA4YzAgMjQuNDE4LTE5Ljc5MyA0NC4yMS00NC4yMTEgNDQuMjEtMjQuNDE0IDAtNDQuMjA3LTE5Ljc5Mi00NC4yMDctNDQuMjFDMTkuODA5IDIzLjA5NCAzOS42MDIgMy4zIDY0LjAxNiAzLjNjMjQuNDE4IDAgNDQuMjEgMTkuNzkzIDQ0LjIxIDQ0LjIwN3ptMCAwIi8+PHBhdGggZmlsbD0iI2QwZThmMCIgZD0iTTEwMC4xNDggNDguMzZjMCAxOS45NTYtMTYuMTc1IDM2LjEzMi0zNi4xMzIgMzYuMTMyLTE5Ljk1NCAwLTM2LjEzMy0xNi4xNzYtMzYuMTMzLTM2LjEzMyAwLTE5Ljk1MyAxNi4xOC0zNi4xMzIgMzYuMTMzLTM2LjEzMiAxOS45NTcgMCAzNi4xMzIgMTYuMTggMzYuMTMyIDM2LjEzMnptMCAwIi8+PHBhdGggZmlsbD0iI2VlNzk0YiIgZD0iTTQyLjc2MiA2NS4zNjNzMi45NzYgNDguMDM1IDIuOTc2IDQ4Ljg4N2MwIC40MjIuNDI2IDEuMjczLTEuNzAzIDIuMTI1LTIuMTI1Ljg0OC04LjkyNiAyLjU1LTguOTI2IDIuNTVoMTAuMjAzYzQuNjc2IDAgNC42NzYtMy44MjcgNC42NzYtNC42NzUgMC0uODUyIDEuMjc0LTE5LjEyOSAxLjI3NC0xOS4xMjlzLjQyNSAyMS42OC40MjUgMjIuNTI3YzAgLjg1Mi0uNDI1IDIuMTI1LTMuMzk4IDIuOTc3LTIuMTI1LjQyNi04LjUwNCAxLjctOC41MDQgMS43aDkuNzc4YzUuOTUzIDAgNS45NTMtMy44MjUgNS45NTMtMy44MjVsMS4yNzMtMTkuMTI5cy40MjYgMTkuMTI5LjQyNiAyMS4yNTRjMCAxLjctMS4yNzQgMi45NzctNS45NTMgMy44MjQtMi45NzMuODUyLTYuODAxIDEuNzAzLTYuODAxIDEuNzAzaDExLjA1NWM1LjUyMy0uNDI1IDYuMzc1LTQuMjU0IDYuMzc1LTQuMjU0bDkuMzUxLTQ3LjYwOXptMCAwIi8+PHBhdGggZmlsbD0iI2VlNzk0YiIgZD0iTTg1LjI3IDY1LjM2M3MtMi45NzMgNDguMDM1LTIuOTczIDQ4Ljg4N2MwIC40MjItLjQyNiAxLjI3MyAxLjcgMi4xMjUgMi4xMjQuODQ4IDguOTI1IDIuNTUgOC45MjUgMi41NUg4Mi43MTljLTQuNjc2IDAtNC42NzYtMy44MjctNC42NzYtNC42NzUgMC0uODUyLTEuMjczLTE5LjEyOS0xLjI3My0xOS4xMjlzLS40MjYgMjEuNjgtLjQyNiAyMi41MjdjMCAuODUyLjQyNiAyLjEyNSAzLjQwMiAyLjk3N2w4LjUgMS43SDc4LjQ3Yy01Ljk1IDAtNS45NS0zLjgyNS01Ljk1LTMuODI1bC0xLjI3Ny0xOS4xMjlzLS40MjYgMTkuMTI5LS40MjYgMjEuMjU0YzAgMS43IDEuMjc4IDIuOTc3IDUuOTU0IDMuODI0IDIuOTc2Ljg1MiA2LjggMS43MDMgNi44IDEuNzAzSDcyLjUyYy01LjUyOC0uNDI1LTYuMzgtNC4yNTQtNi4zOC00LjI1NEw1Ni43OSA3NC4yOXptLjQyNS0yMy4zNzljMCAxMS45MDMtOS43NzcgMjEuMjU0LTIxLjI1NCAyMS4yNTQtMTEuNDc2IDAtMjEuMjU0LTkuNzc3LTIxLjI1NC0yMS4yNTQgMC0xMS40NzYgOS43NzgtMjEuMjU0IDIxLjI1NC0yMS4yNTQgMTEuNDc3IDAgMjEuMjU0IDkuMzUyIDIxLjI1NCAyMS4yNTR6bTAgMCIvPjxnIGNsaXAtcGF0aD0idXJsKCNhcmdvY2Qtb3JpZ2luYWwtZSkiPjxnIGNsaXAtcGF0aD0idXJsKCNhcmdvY2Qtb3JpZ2luYWwtZikiPjxwYXRoIGZpbGw9IiNlZTc5NGIiIGQ9Ik0xMDIuMjczIDUzLjQ2YzAgMjAuODk1LTE2LjkzNyAzNy44MzMtMzcuODMyIDM3LjgzMy0yMC44OTQgMC0zNy44MzItMTYuOTM4LTM3LjgzMi0zNy44MzIgMC0yMC44OTUgMTYuOTM4LTM3LjgzMiAzNy44MzItMzcuODMyIDIwLjg5NSAwIDM3LjgzMiAxNi45MzcgMzcuODMyIDM3LjgzMnptMCAwIi8+PC9nPjwvZz48dXNlIG1hc2s9InVybCgjYXJnb2NkLW9yaWdpbmFsLWgpIiB4bGluazpocmVmPSIjYXJnb2NkLW9yaWdpbmFsLWciLz48dXNlIG1hc2s9InVybCgjYXJnb2NkLW9yaWdpbmFsLWopIiB4bGluazpocmVmPSIjYXJnb2NkLW9yaWdpbmFsLWkiLz48cGF0aCBmaWxsPSIjMDEwMTAxIiBkPSJNNzEuNjY4IDczLjg2M2MwIDcuMjI3LTMuNDAyIDExLjkwNy03LjY1MiAxMS45MDdzLTcuNjUzLTUuNTI4LTcuNjUzLTEyLjc1NGMwIDAgMy40MDMgNi44IDguMDc4IDYuOCA0LjY3NiAwIDcuMjI3LTUuOTUzIDcuMjI3LTUuOTUzem0wIDAiLz48cGF0aCBmaWxsPSIjZmZmIiBkPSJNNzEuNjY4IDczLjg2M2MwIDQuNjgtMy40MDIgNy4yMjctNy42NTIgNy4yMjdzLTcuMjI3LTMuMzk5LTcuMjI3LTcuNjQ5YzAgMCAzLjQwMiA0LjI1IDguMDc4IDQuMjUgNC42NzYgMCA2LjgwMS0zLjgyOCA2LjgwMS0zLjgyOHptMCAwIi8+PHBhdGggZmlsbD0iI2U5NjU0YiIgZD0iTTkyLjA3IDUzLjg4N2MwIDcuMjc3LTUuODk4IDEzLjE3NS0xMy4xNzUgMTMuMTc1LTcuMjc4IDAtMTMuMTgtNS44OTgtMTMuMTgtMTMuMTc1IDAtNy4yNzggNS45MDItMTMuMTggMTMuMTgtMTMuMTggNy4yNzcgMCAxMy4xNzUgNS45MDIgMTMuMTc1IDEzLjE4em0tMjkuNzU0IDBjMCA3LjI3Ny01LjkwMiAxMy4xNzUtMTMuMTggMTMuMTc1LTcuMjc3IDAtMTMuMTc1LTUuODk4LTEzLjE3NS0xMy4xNzUgMC03LjI3OCA1Ljg5OC0xMy4xOCAxMy4xNzYtMTMuMTggNy4yNzcgMCAxMy4xOCA1LjkwMiAxMy4xOCAxMy4xOHptMCAwIi8+PHBhdGggZmlsbD0iI2ZmZiIgZD0iTTg5LjA5OCA1My44ODdjMCA1LjYzMy00LjU3IDEwLjIwMy0xMC4yMDMgMTAuMjAzLTUuNjMzIDAtMTAuMjA0LTQuNTctMTAuMjA0LTEwLjIwMyAwLTUuNjM3IDQuNTctMTAuMjAzIDEwLjIwNC0xMC4yMDMgNS42MzIgMCAxMC4yMDMgNC41NjYgMTAuMjAzIDEwLjIwM3ptLTMwLjYxIDBjMCA1LjYzMy00LjU2NiAxMC4yMDMtMTAuMTk5IDEwLjIwMy01LjYzNyAwLTEwLjIwMy00LjU3LTEwLjIwMy0xMC4yMDNhMTAuMjAxIDEwLjIwMSAwIDAxMTAuMjAzLTEwLjIwM2M1LjYzMyAwIDEwLjIgNC41NjYgMTAuMiAxMC4yMDN6bTAgMCIvPjxwYXRoIGZpbGw9IiMwMTAxMDEiIGQ9Ik01MS4yNjIgNTIuNjFhMi45NzUgMi45NzUgMCAxMS01Ljk1LjAwMyAyLjk3NSAyLjk3NSAwIDAxNS45NS0uMDA0em0zMC42MDkgMGEyLjk3NiAyLjk3NiAwIDExLTUuOTUxLjAwMSAyLjk3NiAyLjk3NiAwIDAxNS45NTEtLjAwMnptMCAwIi8+PHBhdGggZmlsbD0iI2I2Y2ZlYSIgZD0iTTE3LjI1OCA1OC45ODhhMi4wMDUgMi4wMDUgMCAwMS0yLjEyNS0yLjEyNVYzOS44NmEyLjAwOCAyLjAwOCAwIDAxLjU4Mi0xLjU0MyAyLjAwOCAyLjAwOCAwIDAxMS41NDMtLjU4MiAyLjAwNSAyLjAwNSAwIDAxMi4xMjUgMi4xMjV2MTcuMDA0Yy4wMzUuNTctLjE4IDEuMTMzLS41ODYgMS41NGEyLjAwOCAyLjAwOCAwIDAxLTEuNTQuNTg1em05Mi42NjggMGEyLjAwMyAyLjAwMyAwIDAxLTEuNTQtLjU4NiAyLjAwOCAyLjAwOCAwIDAxLS41ODUtMS41MzlWMzkuODZhMi4wMTEgMi4wMTEgMCAwMS41ODYtMS41NDMgMiAyIDAgMDExLjUzOS0uNTgyIDIgMiAwIDAxMS41MzkuNTgyYy40MS40MDcuNjIuOTcuNTg2IDEuNTQzdjE3LjAwNGExLjk5NCAxLjk5NCAwIDAxLS41ODYgMS41NCAyLjAwMyAyLjAwMyAwIDAxLTEuNTQuNTg1em0wIDAiLz48cGF0aCBmaWxsPSIjZmZmIiBkPSJNNTEuNjg4IDEzLjUwNGEyLjEyNSAyLjEyNSAwIDExLTQuMjUgMCAyLjEyNSAyLjEyNSAwIDAxNC4yNSAwek0zNC4yNjIgNzAuODlhMS41NTkgMS41NTkgMCAwMS0xLjI3OC0uNDI1Yy01LjEwMS02LjM3NS03LjY1Mi0xNC40NTMtNy42NTItMjIuNTMxYTM3LjkzMyAzNy45MzMgMCAwMTUuMTAyLTE5LjEzIDQxLjY0MSA0MS42NDEgMCAwMTEzLjYwMS0xMy42IDEuODczIDEuODczIDAgMDEyLjEzLjQyNSAxLjg3NCAxLjg3NCAwIDAxLS40MjcgMi4xMjUgMzQuMzA1IDM0LjMwNSAwIDAwLTE3LjQzIDI5Ljc1NCAzMy40ODcgMzMuNDg3IDAgMDA3LjIyNyAyMC44MzJjLjQyNi40MjYuNDI2IDEuNy0uNDI2IDIuMTI1LS40MjUuNDI2LS40MjUuNDI2LS44NDcuNDI2em0wIDAiLz48dXNlIG1hc2s9InVybCgjYXJnb2NkLW9yaWdpbmFsLWwpIiB4bGluazpocmVmPSIjYXJnb2NkLW9yaWdpbmFsLWsiLz48L3N2Zz4=;" vertex="1" parent="1">
          <mxGeometry x="435" y="426" width="93.52" height="93.52" as="geometry" />
        </mxCell>
        <mxCell id="h0hd5ZxkmlX1thas-wsX-11" style="edgeStyle=orthogonalEdgeStyle;rounded=0;orthogonalLoop=1;jettySize=auto;html=1;" edge="1" parent="1" source="h0hd5ZxkmlX1thas-wsX-5" target="h0hd5ZxkmlX1thas-wsX-3">
          <mxGeometry relative="1" as="geometry" />
        </mxCell>
        <mxCell id="h0hd5ZxkmlX1thas-wsX-17" style="edgeStyle=orthogonalEdgeStyle;rounded=0;orthogonalLoop=1;jettySize=auto;html=1;" edge="1" parent="1" source="h0hd5ZxkmlX1thas-wsX-5" target="h0hd5ZxkmlX1thas-wsX-6">
          <mxGeometry relative="1" as="geometry" />
        </mxCell>
        <mxCell id="h0hd5ZxkmlX1thas-wsX-5" value="Argo Image Updater" style="rounded=1;whiteSpace=wrap;html=1;fillColor=none;" vertex="1" parent="1">
          <mxGeometry x="411" y="344" width="147" height="60" as="geometry" />
        </mxCell>
        <mxCell id="h0hd5ZxkmlX1thas-wsX-15" style="edgeStyle=orthogonalEdgeStyle;rounded=0;orthogonalLoop=1;jettySize=auto;html=1;" edge="1" parent="1" source="h0hd5ZxkmlX1thas-wsX-6" target="h0hd5ZxkmlX1thas-wsX-10">
          <mxGeometry relative="1" as="geometry" />
        </mxCell>
        <mxCell id="h0hd5ZxkmlX1thas-wsX-16" style="edgeStyle=orthogonalEdgeStyle;rounded=0;orthogonalLoop=1;jettySize=auto;html=1;" edge="1" parent="1" source="h0hd5ZxkmlX1thas-wsX-6" target="h0hd5ZxkmlX1thas-wsX-7">
          <mxGeometry relative="1" as="geometry" />
        </mxCell>
        <mxCell id="h0hd5ZxkmlX1thas-wsX-6" value="Argo CD" style="rounded=1;whiteSpace=wrap;html=1;fillColor=none;" vertex="1" parent="1">
          <mxGeometry x="585" y="344" width="147" height="60" as="geometry" />
        </mxCell>
        <mxCell id="h0hd5ZxkmlX1thas-wsX-9" style="edgeStyle=orthogonalEdgeStyle;rounded=0;orthogonalLoop=1;jettySize=auto;html=1;" edge="1" parent="1" source="h0hd5ZxkmlX1thas-wsX-7" target="h0hd5ZxkmlX1thas-wsX-8">
          <mxGeometry relative="1" as="geometry" />
        </mxCell>
        <mxCell id="h0hd5ZxkmlX1thas-wsX-7" value="Argo Notify" style="rounded=1;whiteSpace=wrap;html=1;fillColor=none;" vertex="1" parent="1">
          <mxGeometry x="585" y="442.76" width="147" height="60" as="geometry" />
        </mxCell>
        <mxCell id="h0hd5ZxkmlX1thas-wsX-8" value="" style="image;html=1;image=img/lib/atlassian/Jira_Software_Logo.svg;" vertex="1" parent="1">
          <mxGeometry x="884" y="434.76" width="74" height="76" as="geometry" />
        </mxCell>
        <mxCell id="h0hd5ZxkmlX1thas-wsX-10" value="" style="editableCssRules=.*;html=1;shape=image;verticalLabelPosition=bottom;labelBackgroundColor=#ffffff;verticalAlign=top;aspect=fixed;imageAspect=0;image=data:image/svg+xml,PHN2ZyB4bWxucz0iaHR0cDovL3d3dy53My5vcmcvMjAwMC9zdmciIHhtbG5zOnY9Imh0dHBzOi8vdmVjdGEuaW8vbmFubyIgd2lkdGg9IjcwMi44NDYzMTM0NzY1NjI1IiBoZWlnaHQ9IjY4MS45NjcxMDIwNTA3ODEyIiB2aWV3Qm94PSIxMC4wMDEwMjYxNTM1NjQ0NTMgMTAuMDAwOTMzNjQ3MTU1NzYyIDcwMi44NDYzMTM0NzY1NjI1IDY4MS45NjcxMDIwNTA3ODEyIj4mI3hhOwk8c3R5bGUgdHlwZT0idGV4dC9jc3MiPiYjeGE7CS5zdDB7ZmlsbDojMzI2Y2U1O30mI3hhOwkuc3Qxe2ZpbGw6I2ZmZjt9JiN4YTsJPC9zdHlsZT4mI3hhOwk8cGF0aCBjbGFzcz0ic3QwIiBkPSJNMzU4Ljk4NyAxMC4wNmMtNi4yMTMuMzEzLTEyLjMwMSAxLjg1NC0xNy45MDYgNC41MzFMOTYuNzM3IDEzMS4zNDJjLTEyLjgxMSA2LjExOC0yMi4xMTYgMTcuNjg5LTI1LjI4MSAzMS40MzhsLTYwLjI4MSAyNjIuMjVjLTIuODEyIDEyLjIwNy0uNTI0IDI1LjAyNCA2LjM0NCAzNS41MzFhNDYuMzUgNDYuMzUgMCAwIDAgMi42NTYgMy42ODhsMTY5LjEyNSAyMTAuMjgxYzguODY4IDExLjAyMiAyMi4zMTMgMTcuNDQgMzYuNTMxIDE3LjQzOGwyNzEuMjE5LS4wNjJjMTQuMjEyLjAxIDI3LjY1Ny02LjM5NiAzNi41MzEtMTcuNDA2bDE2OS4wNjMtMjEwLjMxM2M4Ljg3My0xMS4wMjggMTIuMTk3LTI1LjQ2NCA5LjAzMS0zOS4yMTlsLTYwLjM3NS0yNjIuMjVjLTMuMTY1LTEzLjc0OC0xMi40Ny0yNS4zMTktMjUuMjgxLTMxLjQzN0wzODEuNjQzIDE0LjU5MmMtNy4wNS0zLjM2OC0xNC44NDEtNC45MjYtMjIuNjU2LTQuNTMxeiIvPiYjeGE7CTxwYXRoIGNsYXNzPSJzdDEgc3QyIiBkPSJNMzYxLjQwOCA5OS4zMDhjLTguMDc3LjAwMS0xNC42MjYgNy4yNzYtMTQuNjI1IDE2LjI1IDAgLjEzOC4wMjguMjY5LjAzMS40MDYtLjAxMiAxLjIxOS0uMDcxIDIuNjg4LS4wMzEgMy43NS4xOTMgNS4xNzYgMS4zMjEgOS4xMzcgMiAxMy45MDYgMS4yMyAxMC4yMDcgMi4yNjEgMTguNjY3IDEuNjI1IDI2LjUzMS0uNjE5IDIuOTY1LTIuODAzIDUuNjc3LTQuNzUgNy41NjNsLS4zNDQgNi4xODhjLTguNzc3LjcyNy0xNy42MTIgMi4wNTktMjYuNDM3IDQuMDYzLTM3Ljk3NSA4LjYyMi03MC42NyAyOC4xODMtOTUuNTYyIDU0LjU5NC0xLjYxNS0xLjEwMi00LjQ0MS0zLjEyOS01LjI4MS0zLjc1LTIuNjExLjM1My01LjI1IDEuMTU4LTguNjg3LS44NDQtNi41NDUtNC40MDYtMTIuNTA2LTEwLjQ4Ny0xOS43MTktMTcuODEyLTMuMzA1LTMuNTA0LTUuNjk4LTYuODQxLTkuNjI1LTEwLjIxOS0uODkyLS43NjctMi4yNTMtMS44MDUtMy4yNS0yLjU5NC0zLjA3LTIuNDQ4LTYuNjkxLTMuNzI0LTEwLjE4Ny0zLjg0NC00LjQ5Ni0uMTU0LTguODI0IDEuNjA0LTExLjY1NiA1LjE1Ni01LjAzNSA2LjMxNS0zLjQyMyAxNS45NjggMy41OTQgMjEuNTYzLjA3MS4wNTcuMTQ3LjEwMS4yMTkuMTU2Ljk2NC43ODIgMi4xNDUgMS43ODMgMy4wMzEgMi40MzggNC4xNjcgMy4wNzcgNy45NzMgNC42NTEgMTIuMTI1IDcuMDk0IDguNzQ3IDUuNDAyIDE1Ljk5OCA5Ljg4MSAyMS43NSAxNS4yODEgMi4yNDYgMi4zOTQgMi42MzkgNi42MTMgMi45MzggOC40MzhsNC42ODggNC4xODhjLTI1LjA5MyAzNy43NjQtMzYuNzA3IDg0LjQwOS0yOS44NDQgMTMxLjkzOGwtNi4xMjUgMS43ODFjLTEuNjE0IDIuMDg1LTMuODk1IDUuMzY1LTYuMjgxIDYuMzQ0LTcuNTI1IDIuMzctMTUuOTk0IDMuMjQxLTI2LjIxOSA0LjMxMy00LjguMzk5LTguOTQyLjE2MS0xNC4wMzEgMS4xMjUtMS4xMi4yMTItMi42ODEuNjE5LTMuOTA2LjkwNi0uMDQzLjAwOS0uMDgyLjAyMi0uMTI1LjAzMS0uMDY3LjAxNS0uMTU1LjA0OC0uMjE5LjA2My04LjYyIDIuMDgzLTE0LjE1OCAxMC4wMDYtMTIuMzc1IDE3LjgxM3MxMC4yMDMgMTIuNTU3IDE4Ljg3NSAxMC42ODhjLjA2My0uMDE0LjE1NC0uMDE3LjIxOS0uMDMxLjA5OC0uMDIyLjE4NC0uMDcuMjgxLS4wOTQgMS4yMDktLjI2NSAyLjcyNC0uNTYxIDMuNzgxLS44NDQgNS4wMDMtMS4zNCA4LjYyNy0zLjMwOCAxMy4xMjUtNS4wMzEgOS42NzctMy40NzEgMTcuNjkyLTYuMzcgMjUuNS03LjUgMy4yNjEtLjI1NSA2LjY5NyAyLjAxMiA4LjQwNiAyLjk2OWw2LjM3NS0xLjA5NGMxNC42NyA0NS40ODMgNDUuNDE0IDgyLjI0NSA4NC4zNDQgMTA1LjMxMmwtMi42NTYgNi4zNzVjLjk1NyAyLjQ3NSAyLjAxMyA1LjgyNSAxLjMgOC4yNjktMi44MzkgNy4zNjEtNy43MDEgMTUuMTMxLTEzLjIzOCAyMy43OTMtMi42ODEgNC4wMDItNS40MjUgNy4xMDgtNy44NDQgMTEuNjg4LS41NzkgMS4wOTYtMS4zMTYgMi43NzktMS44NzUgMy45MzgtMy43NTkgOC4wNDItMS4wMDIgMTcuMzA1IDYuMjE5IDIwLjc4MSA3LjI2NiAzLjQ5OCAxNi4yODQtLjE5MSAyMC4xODctOC4yNS4wMDYtLjAxMS4wMjYtLjAyLjAzMS0uMDMxcy0uMDA0LS4wMjMgMC0uMDMxYy41NTYtMS4xNDMgMS4zNDQtMi42NDQgMS44MTMtMy43MTkgMi4wNzItNC43NDcgMi43NjItOC44MTUgNC4yMTktMTMuNDA2IDMuODctOS43MiA1Ljk5Ni0xOS45MTkgMTEuMzIzLTI2LjI3NCAxLjQ1OS0xLjc0IDMuODM3LTIuNDA5IDYuMzAyLTMuMDdsMy4zMTMtNmMzMy45MzggMTMuMDI3IDcxLjkyNyAxNi41MjIgMTA5Ljg3NSA3LjkwNmExODkuNzcgMTg5Ljc3IDAgMCAwIDI1LjA5NC03LjU2MmwzLjEyNSA1LjYyNWMyLjUwNi44MTUgNS4yNCAxLjIzNiA3LjQ2OSA0LjUzMSAzLjk4NSA2LjgwOSA2LjcxMSAxNC44NjQgMTAuMDMxIDI0LjU5NCAxLjQ1NyA0LjU5MSAyLjE3OCA4LjY1OSA0LjI1IDEzLjQwNi40NzIgMS4wODIgMS4yNTYgMi42MDUgMS44MTMgMy43NSAzLjg5NSA4LjA4NSAxMi45NDIgMTEuNzg3IDIwLjIxOSA4LjI4MSA3LjIxOS0zLjQ3OCA5Ljk4LTEyLjc0IDYuMjE5LTIwLjc4MWwtMS45MDYtMy45MzdjLTIuNDE5LTQuNTgtNS4xNjMtNy42NTQtNy44NDQtMTEuNjU2LTUuNTM3LTguNjYyLTEwLjEzLTE1Ljg1OC0xMi45NjktMjMuMjE5LTEuMTg3LTMuNzk3LjItNi4xNTggMS4xMjUtOC42MjUtLjU1NC0uNjM1LTEuNzM5LTQuMjItMi40MzctNS45MDYgNDAuNDU3LTIzLjg4OCA3MC4yOTktNjIuMDIxIDg0LjMxMy0xMDYuMDYyIDEuODkyLjI5NyA1LjE4Mi44NzkgNi4yNSAxLjA5NCAyLjItMS40NTEgNC4yMjItMy4zNDQgOC4xODgtMy4wMzEgNy44MDggMS4xMjkgMTUuODIzIDQuMDMgMjUuNSA3LjUgNC40OTggMS43MjMgOC4xMjIgMy43MjMgMTMuMTI1IDUuMDYzIDEuMDU3LjI4MyAyLjU3Mi41NDcgMy43ODEuODEzLjA5Ny4wMjQuMTgzLjA3MS4yODEuMDk0LjA2NS4wMTUuMTU2LjAxNy4yMTkuMDMxIDguNjcyIDEuODY3IDE3LjA5NC0yLjg3OSAxOC44NzUtMTAuNjg3cy0zLjc1NC0xNS43MzItMTIuMzc1LTE3LjgxMmMtMS4yNTQtLjI4NS0zLjAzMi0uNzY5LTQuMjUtMS01LjA4OS0uOTY0LTkuMjMxLS43MjYtMTQuMDMxLTEuMTI1LTEwLjIyNS0xLjA3MS0xOC42OTMtMS45NDMtMjYuMjE5LTQuMzEyLTMuMDY4LTEuMTktNS4yNTEtNC44NDEtNi4zMTMtNi4zNDRsLTUuOTA2LTEuNzE5YzMuMDYyLTIyLjE1NCAyLjIzNy00NS4yMTEtMy4wNjItNjguMjgxLTUuMzQ4LTIzLjI4NS0xNC44LTQ0LjU4MS0yNy40MDYtNjMuMzQ0bDUuMTg4LTQuNjU2Yy4yMzctMi42MjQuMDMzLTUuMzc2IDIuNzUtOC4yODEgNS43NTEtNS40MDEgMTMuMDAzLTkuODc5IDIxLjc1LTE1LjI4MSA0LjE1Mi0yLjQ0MyA3Ljk5LTQuMDE3IDEyLjE1Ni03LjA5NC45NDItLjY5NiAyLjIyOS0xLjc5OCAzLjIxOS0yLjU5NCA3LjAxNS01LjU5NiA4LjYzMS0xNS4yNDggMy41OTQtMjEuNTYycy0xNC43OTctNi45MDktMjEuODEyLTEuMzEyYy0uOTk5Ljc5MS0yLjM1NCAxLjgyMy0zLjI1IDIuNTk0LTMuOTI3IDMuMzc4LTYuMzUxIDYuNzE0LTkuNjU2IDEwLjIxOS03LjIxMiA3LjMyNi0xMy4xNzQgMTMuNDM4LTE5LjcxOSAxNy44NDQtMi44MzYgMS42NTEtNi45OSAxLjA4LTguODc1Ljk2OWwtNS41NjIgMy45NjljLTMxLjcxOS0zMy4yNjEtNzQuOTA1LTU0LjUyNS0xMjEuNDA2LTU4LjY1NmwtLjM0NC02LjUzMWMtMS45MDQtMS44MjItNC4yMDMtMy4zNzctNC43ODEtNy4zMTItLjYzNi03Ljg2NC40MjYtMTYuMzI1IDEuNjU2LTI2LjUzMS42NzktNC43NjkgMS44MDctOC43MyAyLTEzLjkwNi4wNDQtMS4xNzctLjAyNi0yLjg4NC0uMDMxLTQuMTU2LS4wMDEtOC45NzQtNi41NDgtMTYuMjUxLTE0LjYyNS0xNi4yNXptLTE4LjMxMiAxMTMuNDM4bC00LjM0NCA3Ni43MTktLjMxMi4xNTZjLS4yOTEgNi44NjMtNS45NCAxMi4zNDQtMTIuODc1IDEyLjM0NGExMi44MiAxMi44MiAwIDAgMS03LjU5NC0yLjQ2OWwtLjEyNS4wNjMtNjIuOTA2LTQ0LjU5NGMxOS4zMzQtMTkuMDExIDQ0LjA2My0zMy4wNiA3Mi41NjItMzkuNTMxIDUuMjA2LTEuMTgyIDEwLjQxLTIuMDU5IDE1LjU5NC0yLjY4N3ptMzYuNjU2IDBjMzMuMjczIDQuMDkyIDY0LjA0NSAxOS4xNTkgODcuNjI1IDQyLjI1bC02Mi41IDQ0LjMxMy0uMjE5LS4wOTRhMTIuOTEgMTIuOTEgMCAwIDEtMTcuNjg3LTIuMzc1Yy0xLjc3MS0yLjIyMS0yLjcwMS00LjgzMi0yLjgxMi03LjQ2OWwtLjA2Mi0uMDMxek0yMzIuMTI2IDI4My42Mmw1Ny40MzcgNTEuMzc1LS4wNjIuMzEzYTEyLjg4IDEyLjg4IDAgMCAxIDEuNjI1IDE3Ljc1IDEyLjg5IDEyLjg5IDAgMCAxLTYuNjg3IDQuNDA2bC0uMDYyLjI1LTczLjYyNSAyMS4yNWMtMy43NDctMzQuMjY1IDQuMzI5LTY3LjU3NCAyMS4zNzUtOTUuMzQ0em0yNTguMTU2LjAzMWM4LjUzNCAxMy44MzMgMTQuOTk3IDI5LjI4MiAxOC44NDQgNDYuMDMxIDMuODAxIDE2LjU0OCA0Ljc1NSAzMy4wNjcgMy4xODggNDkuMDMxbC03NC0yMS4zMTItLjA2Mi0uMzEyYy02LjYyNy0xLjgxMS0xMC42OTktOC41NTItOS4xNTYtMTUuMzEyLjYzMi0yLjc3IDIuMTAyLTUuMTEzIDQuMDk0LTYuODQ0bC0uMDMxLS4xNTYgNTcuMTI1LTUxLjEyNXptLTE0MC42NTYgNTUuMzEzaDIzLjUzMWwxNC42MjUgMTguMjgxLTUuMjUgMjIuODEzLTIxLjEyNSAxMC4xNTYtMjEuMTg3LTEwLjE4Ny01LjI1LTIyLjgxMnptNzUuNDM4IDYyLjU2M2ExMi44MyAxMi44MyAwIDAgMSAyLjk2OS4yMTlsLjEyNS0uMTU2IDc2LjE1NiAxMi44NzVjLTExLjE0NiAzMS4zMTMtMzIuNDczIDU4LjQ0LTYwLjk2OSA3Ni41OTRsLTI5LjU2Mi03MS40MDYuMDk0LS4xMjVjLTIuNzE2LTYuMzEuMDAyLTEzLjcxIDYuMjUtMTYuNzE5IDEuNi0uNzcgMy4yNzEtMS4xOTcgNC45MzgtMS4yODF6bS0xMjcuOTA2LjMxM2ExMi45IDEyLjkgMCAwIDEgMTIuMzc1IDEwLjAzMSAxMi43NyAxMi43NyAwIDAgMS0uNzE5IDcuOTM4bC4yMTkuMjgxLTI5LjI1IDcwLjY4OGMtMjcuMzQ3LTE3LjU0OS00OS4xMjktNDMuODI0LTYwLjc4MS03Ni4wNjJsNzUuNS0xMi44MTIuMTI1LjE1NmMuODQ1LS4xNTUgMS43MDEtLjIzIDIuNTMxLS4yMTl6bTYzLjc4MSAzMC45NjljMi4wMjQtLjA3NCA0LjA3OS4zNDEgNi4wMzEgMS4yODEgMi41NiAxLjIzMyA0LjUzNyAzLjE3MyA1Ljc4MSA1LjVoLjI4MWwzNy4yMTkgNjcuMjVjLTQuODMgMS42MTktOS43OTYgMy4wMDMtMTQuODc1IDQuMTU2LTI4LjQ2NSA2LjQ2My01Ni44MzkgNC41MDUtODIuNTMxLTQuMjVsMzcuMTI1LTY3LjEyNWguMDYzYTEyLjkxIDEyLjkxIDAgMCAxIDEwLjkwNi02LjgxMnoiIHN0cm9rZT0ibm9uZSIgc3Ryb2tlLXdpZHRoPSIuMjUiLz4mI3hhOzwvc3ZnPg==;fontColor=default;" vertex="1" parent="1">
          <mxGeometry x="889.42" y="344" width="63.16" height="60" as="geometry" />
        </mxCell>
        <mxCell id="h0hd5ZxkmlX1thas-wsX-14" value="Watch" style="text;html=1;align=center;verticalAlign=middle;whiteSpace=wrap;rounded=0;" vertex="1" parent="1">
          <mxGeometry x="486" y="270" width="60" height="30" as="geometry" />
        </mxCell>
        <mxCell id="h0hd5ZxkmlX1thas-wsX-18" value="Webhook" style="text;html=1;align=center;verticalAlign=middle;whiteSpace=wrap;rounded=0;" vertex="1" parent="1">
          <mxGeometry x="799" y="472.76" width="60" height="30" as="geometry" />
        </mxCell>
        <mxCell id="h0hd5ZxkmlX1thas-wsX-19" value="Re-tag to {ENV}-xxx" style="text;html=1;align=center;verticalAlign=middle;whiteSpace=wrap;rounded=0;" vertex="1" parent="1">
          <mxGeometry x="300" y="168" width="125" height="30" as="geometry" />
        </mxCell>
        <mxCell id="h0hd5ZxkmlX1thas-wsX-21" value="Relese ID&lt;br&gt;svc-* image tag" style="text;html=1;align=left;verticalAlign=middle;whiteSpace=wrap;rounded=0;" vertex="1" parent="1">
          <mxGeometry x="213" y="240" width="96" height="30" as="geometry" />
        </mxCell>
      </root>
    </mxGraphModel>
  </diagram>
</mxfile>
